<svg width="56" height="55" viewBox="0 0 56 55" fill="none" xmlns="http://www.w3.org/2000/svg">
<path d="M19.4425 17.1067V17.8099C18.6456 17.8334 18.0361 17.9271 17.6142 18.0912C17.2157 18.2318 16.9462 18.5131 16.8055 18.935C16.6649 19.3335 16.5946 19.9664 16.5946 20.8337V38.273C16.5946 39.1169 16.6649 39.7498 16.8055 40.1717C16.9462 40.5936 17.2157 40.8749 17.6142 41.0155C18.0361 41.1562 18.6456 41.2499 19.4425 41.2968V42C18.9034 41.9531 18.2236 41.9297 17.4032 41.9297C16.6063 41.9062 15.7976 41.8945 14.9772 41.8945C14.063 41.8945 13.2075 41.9062 12.4105 41.9297C11.6136 41.9297 10.969 41.9531 10.4767 42V41.2968C11.2737 41.2499 11.8714 41.1562 12.2699 41.0155C12.6918 40.8749 12.9731 40.5936 13.1137 40.1717C13.2544 39.7498 13.3247 39.1169 13.3247 38.273V20.8337C13.3247 19.9664 13.2544 19.3335 13.1137 18.935C12.9731 18.5131 12.6918 18.2318 12.2699 18.0912C11.8714 17.9271 11.2737 17.8334 10.4767 17.8099V17.1067C10.969 17.1302 11.6136 17.1536 12.4105 17.177C13.2075 17.2005 14.063 17.2122 14.9772 17.2122C15.7976 17.2122 16.6063 17.2005 17.4032 17.177C18.2236 17.1536 18.9034 17.1302 19.4425 17.1067ZM31.99 17.1067C36.1857 17.1067 39.3033 18.1615 41.3425 20.2711C43.3818 22.3573 44.4015 25.3576 44.4015 29.2721C44.4015 31.827 43.8975 34.0656 42.8896 35.9876C41.9051 37.8863 40.4635 39.363 38.5649 40.4178C36.6663 41.4726 34.3691 42 31.6735 42C31.3219 42 30.8531 41.9883 30.2671 41.9648C29.6811 41.9414 29.0717 41.9297 28.4388 41.9297C27.8294 41.9062 27.2668 41.8945 26.7511 41.8945C25.9307 41.8945 25.1221 41.9062 24.3251 41.9297C23.5281 41.9297 22.8835 41.9531 22.3913 42V41.2968C23.1882 41.2499 23.786 41.1562 24.1844 41.0155C24.6064 40.8749 24.8877 40.5936 25.0283 40.1717C25.1689 39.7498 25.2392 39.1169 25.2392 38.273V20.8337C25.2392 19.9664 25.1689 19.3335 25.0283 18.935C24.8877 18.5131 24.6064 18.2318 24.1844 18.0912C23.786 17.9271 23.1882 17.8334 22.3913 17.8099V17.1067C22.8835 17.1302 23.5281 17.1653 24.3251 17.2122C25.1221 17.2356 25.9073 17.2356 26.6808 17.2122C27.5012 17.1888 28.4271 17.1653 29.4585 17.1419C30.4898 17.1184 31.3337 17.1067 31.99 17.1067ZM31.111 17.7396C30.0327 17.7396 29.3295 17.9388 29.0014 18.3373C28.6732 18.7358 28.5091 19.5445 28.5091 20.7634V38.3434C28.5091 39.5622 28.6732 40.3709 29.0014 40.7694C29.353 41.1679 30.0679 41.3671 31.1461 41.3671C33.7011 41.3671 35.6818 40.91 37.0882 39.9959C38.4946 39.0583 39.4791 37.6988 40.0416 35.9173C40.6042 34.1359 40.8855 31.9677 40.8855 29.4127C40.8855 26.7874 40.569 24.6192 39.9361 22.9081C39.3267 21.1736 38.3071 19.8844 36.8772 19.0405C35.4708 18.1732 33.5487 17.7396 31.111 17.7396Z" fill="black"/>
<rect x="1" y="1" width="54" height="53" stroke="black" stroke-width="2"/>
</svg>
